<svg width="61" height="72" viewBox="0 0 61 72" fill="none" xmlns="http://www.w3.org/2000/svg">
<path d="M30.1444 12.6928C28.3994 12.6928 26.9053 12.0712 25.6622 10.8281C24.4197 9.58562 23.7984 8.09188 23.7984 6.34688C23.7984 4.60125 24.4197 3.10719 25.6622 1.86469C26.9053 0.621564 28.3994 0 30.1444 0C31.8894 0 33.3834 0.621564 34.6266 1.86469C35.8691 3.10719 36.4903 4.60125 36.4903 6.34688C36.4903 8.09188 35.8691 9.58562 34.6266 10.8281C33.3834 12.0712 31.8894 12.6928 30.1444 12.6928ZM21.9234 71.6831V22.6444H0V18.8944H60.2887V22.6444H38.3653V71.6831H34.6153V51.0581H25.6734V71.6831H21.9234Z" fill="#FE9000"/>
</svg>
