<svg width="69" height="69" viewBox="0 0 69 69" fill="none" xmlns="http://www.w3.org/2000/svg">
<path d="M65.4375 68.1131L52.5 55.1756V66.1875H48.75V48.75H66.1875V52.5H55.0819L68.0194 65.4375L65.4375 68.1131ZM33.75 67.5C29.0813 67.5 24.6938 66.6144 20.5875 64.8431C16.4813 63.0719 12.9094 60.6681 9.87188 57.6319C6.83438 54.5956 4.42969 51.025 2.65781 46.92C0.885938 42.8156 0 38.4297 0 33.7622C0 29.0953 0.885625 24.7075 2.65687 20.5987C4.42812 16.4906 6.83188 12.9169 9.86813 9.8775C12.9044 6.83812 16.475 4.43219 20.58 2.65969C24.6844 0.886562 29.0703 0 33.7378 0C38.4047 0 42.7925 0.885935 46.9013 2.65781C51.0094 4.42969 54.5831 6.83437 57.6225 9.87187C60.6619 12.9094 63.0678 16.4812 64.8403 20.5875C66.6134 24.6937 67.5 29.0812 67.5 33.75C67.5 34.7594 67.4556 35.7691 67.3669 36.7791C67.2775 37.7884 67.1441 38.7981 66.9666 39.8081H63.1013C63.3175 38.7981 63.4797 37.7884 63.5878 36.7791C63.6959 35.7691 63.75 34.7594 63.75 33.75C63.75 32.2756 63.6478 30.8012 63.4434 29.3269C63.2391 27.8525 62.9084 26.3941 62.4516 24.9516H47.3222C47.6059 26.3941 47.8066 27.8525 47.9241 29.3269C48.0422 30.8012 48.1013 32.2756 48.1013 33.75C48.1013 34.7594 48.0722 35.7691 48.0141 36.7791C47.9566 37.7884 47.87 38.7981 47.7544 39.8081H44.0044C44.12 38.7981 44.2066 37.7884 44.2641 36.7791C44.3222 35.7691 44.3513 34.7594 44.3513 33.75C44.3513 32.2756 44.2922 30.8012 44.1741 29.3269C44.0566 27.8525 43.8559 26.3941 43.5722 24.9516H23.9278C23.6441 26.3941 23.4434 27.8544 23.3259 29.3325C23.2078 30.8112 23.1488 32.2897 23.1488 33.7678C23.1488 35.2466 23.2078 36.7191 23.3259 38.1853C23.4434 39.6516 23.6441 41.1059 23.9278 42.5484H38.9419V46.2984H24.8222C25.7334 49.5109 26.9109 52.5928 28.3547 55.5441C29.7978 58.4953 31.5963 61.2403 33.75 63.7791C34.7594 63.7791 35.7691 63.725 36.7791 63.6169C37.7884 63.5087 38.7981 63.3922 39.8081 63.2672V66.9881C38.7981 67.1131 37.7884 67.2297 36.7791 67.3378C35.7691 67.4459 34.7594 67.5 33.75 67.5ZM5.04844 42.5484H20.1778C19.8941 41.1059 19.6934 39.6456 19.5759 38.1675C19.4578 36.6888 19.3988 35.2103 19.3988 33.7322C19.3988 32.2534 19.4578 30.7809 19.5759 29.3147C19.6934 27.8484 19.8941 26.3941 20.1778 24.9516H5.04844C4.59156 26.3941 4.26094 27.8544 4.05656 29.3325C3.85219 30.8112 3.75 32.2897 3.75 33.7678C3.75 35.2466 3.85219 36.7191 4.05656 38.1853C4.26094 39.6516 4.59156 41.1059 5.04844 42.5484ZM6.57656 21.2016H20.9222C21.6522 18.0722 22.6672 15.0734 23.9672 12.2053C25.2678 9.33781 26.9375 6.64906 28.9763 4.13906C24 4.87969 19.5481 6.76312 15.6206 9.78937C11.6925 12.8162 8.67781 16.6203 6.57656 21.2016ZM28.9763 63.3609C27.0819 60.8028 25.4725 58.09 24.1481 55.2225C22.8231 52.3544 21.7594 49.3797 20.9569 46.2984H6.57656C8.67781 50.8316 11.7044 54.6116 15.6563 57.6384C19.6081 60.6647 24.0481 62.5722 28.9763 63.3609ZM24.8222 21.2016H42.6778C41.8316 17.9853 40.6506 14.9281 39.135 12.03C37.6194 9.13188 35.8244 6.36219 33.75 3.72094C31.6444 6.25969 29.8416 9.00375 28.3416 11.9531C26.8416 14.9025 25.6684 17.9853 24.8222 21.2016ZM46.5431 21.2016H60.9234C58.8222 16.6203 55.8075 12.8044 51.8794 9.75375C47.9519 6.70312 43.5 4.83156 38.5238 4.13906C40.4181 6.69719 41.9916 9.42218 43.2441 12.3141C44.4966 15.2059 45.5963 18.1684 46.5431 21.2016Z" fill="#FE9000"/>
</svg>
