<svg width="90" height="90" viewBox="0 0 90 90" fill="none" xmlns="http://www.w3.org/2000/svg">
<mask id="mask0_4043_9584" style="mask-type:alpha" maskUnits="userSpaceOnUse" x="0" y="0" width="90" height="90">
<rect width="90" height="90" fill="#D9D9D9"/>
</mask>
<g mask="url(#mask0_4043_9584)">
<path d="M6.63574 72.9803V69.2303H83.3664V72.9803H6.63574ZM17.3092 65.4803C15.5829 65.4803 14.1417 64.9022 12.9854 63.746C11.8292 62.5897 11.2511 61.1488 11.2511 59.4232V22.7885C11.2511 21.0622 11.8292 19.621 12.9854 18.4647C14.1417 17.3085 15.5829 16.7303 17.3092 16.7303H72.6929C74.4192 16.7303 75.8604 17.3085 77.0167 18.4647C78.1729 19.621 78.7511 21.0622 78.7511 22.7885V59.4232C78.7511 61.1488 78.1729 62.5897 77.0167 63.746C75.8604 64.9022 74.4192 65.4803 72.6929 65.4803H17.3092ZM17.3092 61.7303H72.6929C73.2704 61.7303 73.7995 61.49 74.2801 61.0094C74.7607 60.5288 75.0011 60 75.0011 59.4232V22.7885C75.0011 22.2116 74.7607 21.6825 74.2801 21.2013C73.7995 20.7207 73.2704 20.4803 72.6929 20.4803H17.3092C16.7317 20.4803 16.2026 20.7207 15.722 21.2013C15.2414 21.6825 15.0011 22.2116 15.0011 22.7885V59.4232C15.0011 60 15.2414 60.5288 15.722 61.0094C16.2026 61.49 16.7317 61.7303 17.3092 61.7303Z" fill="#FE9000"/>
<path d="M21.2656 42.2656V36.7578C21.2656 36.2891 21.3698 35.9375 21.5781 35.7031C21.7917 35.4688 22.0703 35.3516 22.4141 35.3516C22.7734 35.3516 23.0573 35.4688 23.2656 35.7031C23.4792 35.9375 23.5859 36.2891 23.5859 36.7578V42.3906C23.5859 43.0312 23.6562 43.5677 23.7969 44C23.9427 44.4271 24.1979 44.7604 24.5625 45C24.9271 45.2344 25.4375 45.3516 26.0938 45.3516C27 45.3516 27.6406 45.112 28.0156 44.6328C28.3906 44.1484 28.5781 43.4167 28.5781 42.4375V36.7578C28.5781 36.2839 28.6823 35.9323 28.8906 35.7031C29.099 35.4688 29.3776 35.3516 29.7266 35.3516C30.0755 35.3516 30.3568 35.4688 30.5703 35.7031C30.7891 35.9323 30.8984 36.2839 30.8984 36.7578V42.2656C30.8984 43.1615 30.8099 43.9089 30.6328 44.5078C30.4609 45.1068 30.1328 45.6328 29.6484 46.0859C29.2318 46.4714 28.7474 46.7526 28.1953 46.9297C27.6432 47.1068 26.9974 47.1953 26.2578 47.1953C25.3776 47.1953 24.6198 47.1016 23.9844 46.9141C23.349 46.7214 22.8307 46.4271 22.4297 46.0312C22.0286 45.6302 21.7344 45.1198 21.5469 44.5C21.3594 43.875 21.2656 43.1302 21.2656 42.2656ZM34.5844 44.7734L37.1469 41.0312L34.9906 37.7031C34.7875 37.3802 34.6339 37.1042 34.5297 36.875C34.4307 36.6406 34.3813 36.4167 34.3813 36.2031C34.3813 35.9844 34.4776 35.7891 34.6703 35.6172C34.8682 35.4401 35.1078 35.3516 35.3891 35.3516C35.712 35.3516 35.962 35.4479 36.1391 35.6406C36.3214 35.8281 36.5714 36.1797 36.8891 36.6953L38.6078 39.4766L40.4438 36.6953C40.5948 36.4609 40.7224 36.2604 40.8266 36.0938C40.9359 35.9271 41.0401 35.7891 41.1391 35.6797C41.238 35.5703 41.3474 35.4896 41.4672 35.4375C41.5922 35.3802 41.7354 35.3516 41.8969 35.3516C42.1885 35.3516 42.4255 35.4401 42.6078 35.6172C42.7953 35.7891 42.8891 35.9948 42.8891 36.2344C42.8891 36.5833 42.6885 37.0573 42.2875 37.6562L40.0297 41.0312L42.4594 44.7734C42.6781 45.1016 42.837 45.375 42.9359 45.5938C43.0349 45.8073 43.0844 46.0104 43.0844 46.2031C43.0844 46.3854 43.0401 46.5521 42.9516 46.7031C42.863 46.8542 42.738 46.974 42.5766 47.0625C42.4151 47.151 42.2328 47.1953 42.0297 47.1953C41.8109 47.1953 41.626 47.1484 41.475 47.0547C41.324 46.9661 41.2016 46.8542 41.1078 46.7188C41.0141 46.5833 40.8396 46.3203 40.5844 45.9297L38.5688 42.7578L36.4281 46.0234C36.2615 46.2839 36.1417 46.4661 36.0688 46.5703C36.001 46.6745 35.9177 46.776 35.8188 46.875C35.7198 46.974 35.6026 47.0521 35.4672 47.1094C35.3318 47.1667 35.1729 47.1953 34.9906 47.1953C34.7094 47.1953 34.475 47.1094 34.2875 46.9375C34.1052 46.7656 34.0141 46.5156 34.0141 46.1875C34.0141 45.8021 34.2042 45.3307 34.5844 44.7734ZM49.1531 36.9375L46.9656 45.9453C46.8927 46.2422 46.8276 46.4766 46.7703 46.6484C46.7182 46.8203 46.6349 46.9531 46.5203 47.0469C46.4109 47.1458 46.2495 47.1953 46.0359 47.1953C45.5047 47.1953 45.2391 46.9661 45.2391 46.5078C45.2391 46.388 45.2911 46.0885 45.3953 45.6094L47.575 36.6016C47.6896 36.1224 47.799 35.7943 47.9031 35.6172C48.0073 35.4401 48.2104 35.3516 48.5125 35.3516C48.7729 35.3516 48.9708 35.4141 49.1063 35.5391C49.2469 35.6641 49.3172 35.8359 49.3172 36.0547C49.3172 36.2161 49.2625 36.5104 49.1531 36.9375ZM52.3937 42.2656V36.7578C52.3937 36.2891 52.4979 35.9375 52.7062 35.7031C52.9198 35.4688 53.1984 35.3516 53.5422 35.3516C53.9016 35.3516 54.1854 35.4688 54.3937 35.7031C54.6073 35.9375 54.7141 36.2891 54.7141 36.7578V42.3906C54.7141 43.0312 54.7844 43.5677 54.925 44C55.0708 44.4271 55.326 44.7604 55.6906 45C56.0552 45.2344 56.5656 45.3516 57.2219 45.3516C58.1281 45.3516 58.7687 45.112 59.1437 44.6328C59.5187 44.1484 59.7062 43.4167 59.7062 42.4375V36.7578C59.7062 36.2839 59.8104 35.9323 60.0187 35.7031C60.2271 35.4688 60.5057 35.3516 60.8547 35.3516C61.2036 35.3516 61.4849 35.4688 61.6984 35.7031C61.9172 35.9323 62.0266 36.2839 62.0266 36.7578V42.2656C62.0266 43.1615 61.938 43.9089 61.7609 44.5078C61.5891 45.1068 61.2609 45.6328 60.7766 46.0859C60.3599 46.4714 59.8755 46.7526 59.3234 46.9297C58.7714 47.1068 58.1255 47.1953 57.3859 47.1953C56.5057 47.1953 55.7479 47.1016 55.1125 46.9141C54.4771 46.7214 53.9589 46.4271 53.5578 46.0312C53.1568 45.6302 52.8625 45.1198 52.675 44.5C52.4875 43.875 52.3937 43.1302 52.3937 42.2656ZM66.2281 45.7812V36.7578C66.2281 36.2891 66.3349 35.9375 66.5484 35.7031C66.762 35.4688 67.038 35.3516 67.3766 35.3516C67.7255 35.3516 68.0068 35.4688 68.2203 35.7031C68.4391 35.9323 68.5484 36.2839 68.5484 36.7578V45.7812C68.5484 46.2552 68.4391 46.6094 68.2203 46.8438C68.0068 47.0781 67.7255 47.1953 67.3766 47.1953C67.0432 47.1953 66.7672 47.0781 66.5484 46.8438C66.3349 46.6042 66.2281 46.25 66.2281 45.7812Z" fill="#FE9000"/>
</g>
</svg>
