<svg width="73" height="61" viewBox="0 0 73 61" fill="none" xmlns="http://www.w3.org/2000/svg">
<path d="M43.4138 57.1153C44.7644 57.1153 45.9194 56.6356 46.8787 55.6762C47.8375 54.7175 48.3169 53.5625 48.3169 52.2112C48.3169 50.8606 47.8375 49.7056 46.8787 48.7463C45.9194 47.7875 44.7644 47.3081 43.4138 47.3081C42.0625 47.3081 40.9075 47.7875 39.9488 48.7463C38.9894 49.7056 38.5097 50.8606 38.5097 52.2112C38.5097 53.5625 38.9894 54.7175 39.9488 55.6762C40.9075 56.6356 42.0625 57.1153 43.4138 57.1153ZM63.75 26.25C65.1013 26.25 66.2563 25.7703 67.215 24.8109C68.1744 23.8522 68.6541 22.6972 68.6541 21.3459C68.6541 19.9953 68.1744 18.8403 67.215 17.8809C66.2563 16.9216 65.1013 16.4419 63.75 16.4419C62.3988 16.4419 61.2438 16.9216 60.285 17.8809C59.3256 18.8403 58.8459 19.9953 58.8459 21.3459C58.8459 22.6972 59.3256 23.8522 60.285 24.8109C61.2438 25.7703 62.3988 26.25 63.75 26.25ZM13.125 20.625H32.8847V16.875H13.125V20.625ZM13.125 35.625H32.8847V31.875H13.125V35.625ZM6.05813 52.5C4.33187 52.5 2.89063 51.9219 1.73438 50.7656C0.578125 49.6094 0 48.1681 0 46.4419V6.05812C0 4.33187 0.578125 2.89062 1.73438 1.73437C2.89063 0.578125 4.33187 0 6.05813 0H61.4419C63.1681 0 64.6094 0.578125 65.7656 1.73437C66.9219 2.89062 67.5 4.33187 67.5 6.05812H63.75C63.75 5.48062 63.5097 4.95156 63.0291 4.47094C62.5484 3.99031 62.0194 3.75 61.4419 3.75H6.05813C5.48062 3.75 4.95156 3.99031 4.47094 4.47094C3.99031 4.95156 3.75 5.48062 3.75 6.05812V46.4419C3.75 47.0194 3.99031 47.5484 4.47094 48.0291C4.95156 48.5097 5.48062 48.75 6.05813 48.75H27.2597V52.5H6.05813ZM43.4138 60.8653C41.01 60.8653 38.9666 60.0241 37.2834 58.3416C35.6009 56.6584 34.7597 54.615 34.7597 52.2112C34.7597 50.1106 35.4028 48.2837 36.6891 46.7306C37.9747 45.1781 39.5913 44.195 41.5388 43.7812V34.9041H61.875V29.7769C59.9281 29.3631 58.3116 28.3797 57.0253 26.8266C55.7391 25.2741 55.0959 23.4472 55.0959 21.3459C55.0959 18.9422 55.9375 16.8991 57.6206 15.2166C59.3031 13.5334 61.3463 12.6919 63.75 12.6919C66.1538 12.6919 68.1969 13.5334 69.8794 15.2166C71.5625 16.8991 72.4041 18.9422 72.4041 21.3459C72.4041 23.4472 71.7609 25.2741 70.4747 26.8266C69.1884 28.3797 67.5719 29.3631 65.625 29.7769V38.6541H45.2888V43.7812C47.2356 44.195 48.8522 45.1781 50.1384 46.7306C51.4241 48.2837 52.0669 50.1106 52.0669 52.2112C52.0669 54.615 51.2256 56.6584 49.5431 58.3416C47.8606 60.0241 45.8175 60.8653 43.4138 60.8653Z" fill="#FE9000"/>
</svg>
