<svg width="167" height="68" viewBox="0 0 167 68" fill="none" xmlns="http://www.w3.org/2000/svg">
<g clip-path="url(#clip0_2335_2759)">
<path d="M36.7688 29.2188C38.5218 25.074 41.6932 22.0607 45.9358 20.4942C48.1921 19.6644 50.4041 19.3902 51.7636 19.4153V19.4072H64.1148L59.2082 50.4741H50.2222L51.6293 41.5595C51.306 41.5595 48.1516 41.5595 44.0428 41.5595L45.2577 38.6989C51.0605 37.0171 52.7584 33.3234 53.0934 32.2855C53.0958 32.2794 53.0977 32.2732 53.0996 32.268L53.1029 32.2486L53.7216 28.3147H51.6382C50.905 28.3261 46.6822 28.5772 44.9358 32.7016L37.412 50.4741H27.7695L36.7688 29.2188Z" fill="#FEFEFE"/>
<path d="M76.068 50.474V50.4698C77.4271 50.4948 79.6452 50.2173 81.901 49.3884C86.1516 47.8215 89.3221 44.8011 91.0793 40.6554L100.088 19.3745H90.4323L82.9005 37.1702C81.1522 41.2974 76.9266 41.5485 76.1915 41.5594H74.1096L77.6095 19.3745H68.614L63.7051 50.4735H76.068V50.474Z" fill="#FEFEFE"/>
<path d="M137.949 50.474H139.263L141.711 48.0607C141.749 48.0234 143.99 45.7723 146.971 41.4998H140.057C138.211 41.4998 136.938 40.0019 137.229 38.1759L140.22 19.3868L131.137 19.375L127.963 39.4813C127.341 45.5836 131.71 50.474 137.949 50.474Z" fill="#FEFEFE"/>
<path d="M100.809 50.4741L108.334 32.7016C110.079 28.5767 114.301 28.3261 115.036 28.3147H117.119L116.5 32.2486L116.496 32.268C116.495 32.2732 116.493 32.2794 116.49 32.2855C116.155 33.3234 114.458 37.0175 108.654 38.6989L107.441 41.5595C111.549 41.5595 114.703 41.5595 115.027 41.5595L113.62 50.4741H122.607L127.511 19.4072H115.161V19.4153C113.8 19.3902 111.59 19.6644 109.334 20.4942C105.09 22.0607 101.92 25.0745 100.164 29.2188L91.166 50.4741H100.809Z" fill="#FEFEFE"/>
<path d="M12.3611 50.4669C13.7239 50.4948 15.9401 50.2173 18.1964 49.387C22.4442 47.821 25.618 44.803 27.3728 40.6544L36.382 19.3755H26.7376L22.6454 29.0187L19.1959 37.1688C17.4486 41.2961 13.2215 41.5476 12.4859 41.5604H10.4035H3.77415L0 50.474H12.3611V50.4669Z" fill="#FEFEFE"/>
<path d="M157.575 29.5C151.435 43.192 144.062 50.4631 144.062 50.4631H157.288C157.288 50.4631 162.172 41.4709 165.092 29.5H157.575Z" fill="#FEFEFE"/>
<path fill-rule="evenodd" clip-rule="evenodd" d="M165.152 0C165.194 0.0704072 163.811 14.0825 158.916 26.4303C158.936 26.4276 161.202 26.4276 165.715 26.4303C167.599 16.0401 167.411 7.23002 165.152 0Z" fill="#E5813B"/>
</g>
<path d="M14.8742 67.4683C12.8108 67.4683 11.8398 66.3658 11.8398 64.5282C11.8398 61.5882 13.9032 59.1381 16.5734 59.1381C18.5153 59.1381 19.6077 60.2406 19.6077 62.0782C19.4863 65.1407 17.423 67.4683 14.8742 67.4683ZM16.2093 60.7307C14.6314 60.7307 13.6604 62.4457 13.6604 64.1607C13.6604 65.1407 14.1459 65.7532 14.9955 65.7532C16.452 65.7532 17.5444 64.1607 17.5444 62.3232C17.6657 61.3432 17.1802 60.7307 16.2093 60.7307ZM23.1275 64.6507C23.0061 64.6507 22.8848 64.6507 22.642 64.6507L22.1565 67.2233H20.3359L21.7924 59.1381C22.5206 59.1381 23.2489 59.1381 24.0985 59.1381C25.6763 59.1381 26.6473 59.8731 26.6473 61.2207C26.7687 63.0582 25.1908 64.6507 23.1275 64.6507ZM23.8557 60.7307C23.613 60.7307 23.4916 60.7307 23.3702 60.7307L22.8848 63.0582C23.0061 63.0582 23.1275 63.0582 23.1275 63.0582C24.0985 63.0582 24.7053 62.3232 24.7053 61.4657C24.8267 60.9757 24.584 60.7307 23.8557 60.7307ZM32.8373 60.7307H30.2885L30.0457 62.3232H32.4732L32.2305 63.7932H29.803L29.4389 65.5082H31.8663L31.6236 67.1008H27.2542L28.7106 59.0156H33.0801L32.8373 60.7307ZM39.9983 67.2233H37.935L36.7212 63.7932C36.4785 63.1807 36.3571 62.5682 36.2358 62.0782C36.1144 62.6907 36.1144 63.1807 35.993 63.9157L35.3861 67.3458H33.6869L35.1434 59.2606H37.2067L38.2991 62.4457C38.5418 63.0582 38.6632 63.7932 38.9059 64.4057C39.0273 63.7932 39.1487 62.9357 39.2701 62.3232L39.8769 59.2606H41.5761L39.9983 67.2233ZM50.8005 60.8532C50.4364 60.7307 49.9509 60.6082 49.7081 60.6082C48.8585 60.6082 48.4944 60.9757 48.4944 61.4657C48.4944 62.5682 50.6791 62.5682 50.6791 64.5282C50.6791 66.1207 49.2226 67.4683 47.2807 67.4683C46.6738 67.4683 46.1883 67.4683 45.7028 67.3458L46.0669 65.6307C46.4311 65.7532 47.0379 65.8757 47.402 65.8757C48.2516 65.8757 48.6158 65.5082 48.6158 64.8957C48.6158 63.9157 46.4311 63.9157 46.4311 61.8332C46.4311 60.3632 47.5234 59.0156 49.7081 59.0156C50.1936 59.0156 50.6791 59.0156 51.0432 59.1381L50.8005 60.8532ZM55.0485 67.4683C52.9852 67.4683 52.0142 66.3658 52.0142 64.5282C52.0142 61.5882 54.0775 59.1381 56.7477 59.1381C58.6897 59.1381 59.7821 60.2406 59.7821 62.0782C59.6607 65.1407 57.5973 67.4683 55.0485 67.4683ZM56.3836 60.7307C54.8058 60.7307 53.8348 62.4457 53.8348 64.1607C53.8348 65.1407 54.3203 65.7532 55.1699 65.7532C56.6264 65.7532 57.7187 64.1607 57.7187 62.3232C57.8401 61.3432 57.3546 60.7307 56.3836 60.7307ZM67.4285 64.2832C67.0644 66.4883 65.6079 67.4683 63.666 67.4683C61.2385 67.4683 60.753 65.9983 61.1171 64.2832L62.0881 59.2606H63.9087L62.9377 64.4057C62.695 65.3857 63.0591 65.8757 64.0301 65.8757C65.1224 65.8757 65.6079 65.3857 65.8507 64.1607L66.8217 59.2606H68.6423L67.4285 64.2832ZM73.2544 63.9157C73.3758 64.1607 73.4972 64.5282 73.6185 64.7732L74.7109 67.2233H72.6476L71.4338 64.0382H71.3125L70.7056 67.2233H68.885L70.3415 59.1381C71.0697 59.1381 71.7979 59.1381 72.7689 59.1381C74.5895 59.1381 75.3178 59.8731 75.3178 60.9757C75.4391 62.4457 74.7109 63.4257 73.2544 63.9157ZM72.5262 60.7307C72.2834 60.7307 72.0407 60.7307 71.9193 60.7307L71.5552 62.8132C71.6766 62.8132 71.7979 62.8132 72.0407 62.8132C72.8903 62.8132 73.4972 62.2007 73.4972 61.4657C73.4972 60.9757 73.2544 60.7307 72.5262 60.7307ZM82.3574 61.0982C81.9932 60.9757 81.5078 60.8532 81.0223 60.8532C79.0803 60.8532 78.4734 62.9357 78.4734 64.1607C78.4734 65.1407 78.8376 65.6307 79.9299 65.6307C80.5368 65.6307 81.0223 65.5082 81.5078 65.3857L81.3864 67.1008C80.7795 67.2233 80.0513 67.3458 79.4444 67.3458C76.8956 67.3458 76.4101 65.7532 76.4101 64.5282C76.4101 61.8332 77.988 59.1381 81.1436 59.1381C81.7505 59.1381 82.3574 59.2606 82.7215 59.3831L82.3574 61.0982ZM88.6688 60.7307H86.1199L85.8772 62.3232H88.3046L88.0619 63.7932H85.6344L85.2703 65.5082H87.6978L87.455 67.1008H83.0856L84.5421 59.0156H88.9115L88.6688 60.7307ZM98.1358 60.8532C97.7717 60.7307 97.2862 60.6082 97.0435 60.6082C96.1938 60.6082 95.8297 60.9757 95.8297 61.4657C95.8297 62.5682 98.0144 62.5682 98.0144 64.5282C98.0144 66.1207 96.558 67.4683 94.616 67.4683C94.0091 67.4683 93.5237 67.4683 93.0382 67.3458L93.4023 65.6307C93.7664 65.7532 94.3733 65.8757 94.7374 65.8757C95.587 65.8757 95.9511 65.5082 95.9511 64.8957C95.9511 63.9157 93.7664 63.9157 93.7664 61.8332C93.7664 60.3632 94.8587 59.0156 97.0435 59.0156C97.5289 59.0156 98.0145 59.0156 98.3786 59.1381L98.1358 60.8532ZM102.991 64.4057L102.505 67.2233H100.685L101.17 64.4057L99.7137 59.1381H101.656L102.141 61.2207C102.262 61.7107 102.384 62.0782 102.384 62.4457C102.627 61.9557 102.991 61.4657 103.233 60.9757L104.447 59.1381H106.389L102.991 64.4057ZM111.123 60.8532C110.759 60.7307 110.273 60.6082 110.03 60.6082C109.181 60.6082 108.817 60.9757 108.817 61.4657C108.817 62.5682 111.001 62.5682 111.001 64.5282C111.001 66.1207 109.545 67.4683 107.603 67.4683C106.996 67.4683 106.511 67.4683 106.025 67.3458L106.389 65.6307C106.753 65.7532 107.36 65.8757 107.724 65.8757C108.574 65.8757 108.938 65.5082 108.938 64.8957C108.938 63.9157 106.753 63.9157 106.753 61.8332C106.753 60.3632 107.846 59.0156 110.03 59.0156C110.516 59.0156 111.001 59.0156 111.365 59.1381L111.123 60.8532ZM118.041 60.8532H116.22L115.007 67.3458H113.186L114.4 60.8532H112.579L112.822 59.2606H118.405L118.041 60.8532ZM123.745 60.7307H121.197L120.954 62.3232H123.381L123.139 63.7932H120.711L120.347 65.5082H122.896L122.653 67.1008H118.284L119.74 59.0156H124.11L123.745 60.7307ZM133.698 67.2233H131.756L131.877 63.9157C131.877 63.3032 131.999 62.6907 131.999 62.0782C131.756 62.6907 131.513 63.3032 131.149 63.9157L129.571 67.2233H127.872L127.508 64.2832C127.387 63.5482 127.387 62.8132 127.387 62.0782C127.265 62.8132 127.023 63.4257 126.78 64.1607L125.809 67.3458H124.11L126.901 59.2606H128.964L129.329 62.8132C129.45 63.4257 129.45 63.9157 129.45 64.5282C129.693 63.9157 129.935 63.4257 130.178 62.8132L131.999 59.2606H134.062L133.698 67.2233ZM140.374 60.8532C140.009 60.7307 139.524 60.6082 139.281 60.6082C138.432 60.6082 138.067 60.9757 138.067 61.4657C138.067 62.5682 140.252 62.5682 140.252 64.5282C140.252 66.1207 138.796 67.4683 136.854 67.4683C136.247 67.4683 135.761 67.4683 135.276 67.3458L135.64 65.6307C136.004 65.7532 136.611 65.8757 136.975 65.8757C137.825 65.8757 138.189 65.5082 138.189 64.8957C138.189 63.9157 136.004 63.9157 136.004 61.8332C136.004 60.3632 137.096 59.0156 139.281 59.0156C139.767 59.0156 140.252 59.0156 140.616 59.1381L140.374 60.8532Z" fill="#E5813B"/>
<defs>
<clipPath id="clip0_2335_2759">
<rect width="167" height="50.4739" fill="white"/>
</clipPath>
</defs>
</svg>
