<svg width="66" height="68" viewBox="0 0 66 68" fill="none" xmlns="http://www.w3.org/2000/svg">
<path d="M32.7834 44.9278C33.3172 44.9278 33.7631 44.7488 34.1213 44.3906C34.4794 44.0325 34.6584 43.5866 34.6584 43.0528C34.6584 42.5191 34.4794 42.0731 34.1213 41.715C33.7631 41.3569 33.3172 41.1778 32.7834 41.1778C32.2497 41.1778 31.8038 41.3569 31.4456 41.715C31.0875 42.0731 30.9084 42.5191 30.9084 43.0528C30.9084 43.5866 31.0875 44.0325 31.4456 44.3906C31.8038 44.7488 32.2497 44.9278 32.7834 44.9278ZM30.9084 37.5H34.6584V20.625H30.9084V37.5ZM25.7878 67.5L24.4322 56.6541C23.2353 56.2934 21.9409 55.7259 20.5491 54.9516C19.1572 54.1778 17.9734 53.3488 16.9978 52.4644L6.99469 56.7188L0 44.5312L8.64656 38.0119C8.53594 37.3344 8.44469 36.6362 8.37281 35.9175C8.30031 35.1987 8.26406 34.5003 8.26406 33.8222C8.26406 33.1922 8.30031 32.53 8.37281 31.8356C8.44469 31.1406 8.53594 30.3581 8.64656 29.4881L0 22.9688L6.99469 10.9256L16.9256 15.1078C18.0456 14.1753 19.2572 13.3341 20.5603 12.5841C21.8628 11.8341 23.1294 11.2547 24.36 10.8459L25.7878 0H39.7791L41.1347 10.9181C42.5722 11.4231 43.8425 12.0025 44.9456 12.6562C46.0487 13.31 47.1847 14.1272 48.3534 15.1078L58.5722 10.9256L65.5669 22.9688L56.6316 29.7047C56.8384 30.4784 56.9541 31.1887 56.9784 31.8356C57.0022 32.4819 57.0141 33.12 57.0141 33.75C57.0141 34.3319 56.99 34.9459 56.9419 35.5922C56.8938 36.2391 56.7831 37.0216 56.61 37.9397L65.4009 44.5312L58.4062 56.7188L48.3534 52.3922C47.1847 53.3728 46.0091 54.2141 44.8266 54.9159C43.6441 55.6178 42.4134 56.1731 41.1347 56.5819L39.7791 67.5H25.7878ZM29.0334 63.75H36.3675L37.7522 53.5959C39.6416 53.0959 41.3422 52.4097 42.8541 51.5372C44.3666 50.6647 45.9062 49.4688 47.4731 47.9494L56.8266 51.9375L60.555 45.5625L52.3481 39.3966C52.6606 38.3291 52.8675 37.3472 52.9688 36.4509C53.0694 35.5541 53.1197 34.6538 53.1197 33.75C53.1197 32.7981 53.0694 31.8978 52.9688 31.0491C52.8675 30.2009 52.6606 29.2672 52.3481 28.2478L60.6994 21.9375L56.9709 15.5625L47.4009 19.5722C46.2666 18.3272 44.775 17.16 42.9263 16.0706C41.0781 14.9819 39.3294 14.2597 37.68 13.9041L36.5334 3.75H29.055L27.8869 13.8319C25.9975 14.2356 24.2606 14.8859 22.6763 15.7828C21.0925 16.6791 19.5169 17.9109 17.9494 19.4784L8.59594 15.5625L4.8675 21.9375L13.0022 28.0097C12.6897 28.8509 12.4709 29.7644 12.3459 30.75C12.2209 31.7356 12.1584 32.7597 12.1584 33.8222C12.1584 34.7741 12.2209 35.7188 12.3459 36.6563C12.4709 37.5938 12.6656 38.5072 12.93 39.3966L4.8675 45.5625L8.59594 51.9375L17.8772 48C19.3484 49.4856 20.8759 50.6769 22.4597 51.5737C24.0441 52.47 25.8291 53.1681 27.8147 53.6681L29.0334 63.75Z" fill="#FE9000"/>
</svg>
